<?xml version="1.0" standalone="no"?>
<!DOCTYPE svg PUBLIC "-//W3C//DTD SVG 20010904//EN"
 "http://www.w3.org/TR/2001/REC-SVG-20010904/DTD/svg10.dtd">
<svg version="1.0" xmlns="http://www.w3.org/2000/svg"
 width="563.000000pt" height="456.000000pt" viewBox="0 0 563.000000 456.000000"
 preserveAspectRatio="xMidYMid meet">
<metadata>
Created by potrace 1.16, written by Peter Selinger 2001-2019
</metadata>
<g transform="translate(0.000000,456.000000) scale(0.100000,-0.100000)"
fill="#000000" stroke="none">
<path d="M2792 4188 c-15 -19 -42 -76 -42 -88 0 -23 21 -8 34 25 8 19 17 35
19 35 3 0 5 -32 6 -71 1 -48 -3 -77 -14 -92 -21 -31 -19 -60 8 -85 29 -27 71
-28 97 -2 24 24 25 51 5 91 -11 20 -15 51 -13 97 l3 67 24 -50 c27 -55 32
-146 16 -277 -17 -147 52 -315 240 -578 89 -125 142 -205 164 -247 l21 -43
-42 0 -43 0 -140 211 c-171 259 -180 274 -220 374 -29 74 -34 80 -60 80 -21 0
-33 -7 -41 -25 -7 -14 -33 -68 -58 -120 -25 -52 -106 -187 -181 -299 -74 -111
-135 -207 -135 -212 0 -5 -23 -9 -50 -9 l-51 0 27 48 c15 26 50 80 77 120 46
67 56 95 27 77 -16 -10 -123 -173 -139 -213 l-14 -33 -121 3 -121 3 -3 29 c-2
15 -1 39 2 51 8 31 135 158 190 190 38 22 47 24 70 14 30 -14 56 1 56 32 0 39
-63 47 -75 10 -3 -10 -20 -24 -38 -33 -17 -9 -53 -34 -78 -57 -51 -44 -59 -41
-59 22 0 55 19 104 41 110 16 4 20 12 17 34 -2 22 -9 29 -30 31 -19 2 -28 -2
-33 -18 -4 -11 -2 -27 4 -34 7 -9 7 -24 0 -52 -6 -21 -9 -64 -6 -94 4 -53 3
-58 -30 -94 -19 -21 -37 -36 -39 -33 -2 2 -6 115 -8 251 -2 135 -6 249 -10
253 -7 7 86 42 124 47 37 4 37 4 43 25 6 25 -10 51 -31 51 -24 0 -42 -20 -42
-46 0 -20 -12 -28 -73 -48 -12 -4 -20 1 -26 17 -46 116 -48 125 -39 141 13 22
-7 46 -38 46 -14 0 -25 -8 -29 -20 -8 -25 10 -50 35 -50 36 0 92 -268 75 -358
-6 -33 -7 -33 -48 -27 -81 13 -177 70 -162 95 3 5 1 19 -5 30 -13 25 -48 24
-63 -2 -14 -21 7 -48 35 -48 11 0 36 -13 54 -30 33 -28 116 -60 159 -60 21 0
22 -5 29 -127 4 -71 9 -156 13 -190 l6 -63 -79 0 c-113 0 -236 -16 -323 -42
l-74 -22 -53 60 c-78 87 -77 95 12 181 41 40 82 89 90 109 16 38 20 122 9 175
-13 60 -67 149 -121 198 -67 62 -133 92 -211 99 -106 8 -181 -34 -219 -123
-19 -46 -22 -145 -5 -189 10 -24 9 -27 -4 -22 -105 40 -183 43 -248 10 -74
-39 -110 -105 -109 -205 2 -185 163 -357 345 -367 84 -5 111 6 200 80 38 32
79 58 90 58 18 0 117 -94 117 -112 0 -4 -25 -23 -55 -44 -74 -48 -176 -153
-231 -236 -181 -271 -189 -628 -21 -912 89 -149 259 -294 417 -355 160 -62
139 -61 1157 -61 l928 0 -4 -195 c-3 -175 -1 -195 13 -195 9 0 20 10 25 23 6
14 11 -33 15 -138 9 -199 13 -228 38 -260 l19 -25 314 0 314 0 3 23 c2 14 10
22 23 22 22 0 25 21 43 290 9 129 9 129 10 -102 l2 -231 -26 -31 c-23 -27 -32
-31 -77 -31 -29 0 -88 7 -132 15 -104 19 -214 19 -312 0 -136 -26 -181 -20
-225 28 -1 1 -4 81 -7 177 -5 146 -8 175 -21 175 -13 0 -15 -27 -15 -182 l0
-182 30 -31 c16 -16 46 -35 68 -41 23 -6 156 -9 350 -7 346 3 346 3 387 71 19
30 20 53 20 389 0 373 -7 460 -46 542 l-19 38 30 21 c214 153 347 416 349 689
1 81 4 108 14 108 41 0 152 77 194 134 31 44 30 52 -12 61 -17 4 -30 8 -30 10
0 2 16 26 35 55 37 54 81 179 68 191 -5 3 -41 3 -82 -2 -40 -6 -76 -7 -79 -5
-2 3 7 19 22 36 14 17 26 35 26 40 0 8 -65 32 -120 44 -26 5 -26 6 -25 103 0
95 -18 193 -36 193 -5 0 -46 -37 -91 -82 -91 -91 -109 -90 -65 2 21 44 23 52
9 57 -23 9 -98 -13 -174 -52 l-68 -34 -14 27 c-8 15 -19 46 -25 70 -7 23 -16
42 -20 42 -15 0 -60 -59 -88 -114 -14 -28 -27 -53 -29 -55 -4 -4 -115 19 -123
26 -3 2 44 53 104 113 60 60 106 112 102 116 -4 4 -16 -1 -27 -11 -20 -18 -21
-18 -70 30 -28 27 -50 54 -50 60 0 11 222 225 249 239 9 5 -19 -27 -61 -70
-80 -82 -92 -108 -62 -138 16 -16 27 -20 54 -16 23 2 250 232 250 253 0 10 -5
27 -10 37 -9 16 -8 18 6 13 12 -4 15 -3 10 5 -5 8 -2 10 8 6 10 -4 16 -1 16 9
0 9 4 19 10 22 5 3 7 0 4 -8 -3 -8 -1 -18 5 -22 11 -6 15 6 12 35 -2 13 -1 13
8 0 27 -39 13 -60 -156 -231 -91 -93 -163 -172 -159 -176 4 -4 83 69 177 163
166 167 169 171 169 213 0 60 -41 101 -101 101 l-43 0 -366 -365 -366 -365
-127 0 c-70 0 -127 4 -127 8 0 10 96 172 110 186 6 6 32 9 60 7 37 -2 59 3 83
18 64 39 119 179 119 302 0 109 -39 152 -110 124 -39 -16 -39 -16 -71 15 -26
26 -37 31 -59 25 -15 -3 -35 -14 -44 -22 -16 -14 -20 -13 -48 11 -18 14 -43
26 -56 26 -99 0 -149 -293 -72 -418 21 -35 64 -62 98 -62 26 0 26 -5 -9 -59
-16 -25 -42 -72 -57 -103 l-28 -58 -56 0 -55 0 -29 56 c-17 31 -83 132 -147
223 -128 180 -174 257 -213 355 -36 90 -49 158 -42 224 18 179 18 190 1 248
-18 64 -57 124 -81 124 -11 0 -14 -20 -14 -104 0 -59 4 -108 10 -111 17 -11
11 -54 -9 -65 -15 -7 -25 -5 -43 10 -23 19 -23 20 -5 50 13 24 17 55 17 126 0
85 -2 94 -19 94 -10 0 -23 -6 -29 -12z m-1384 -509 c104 -45 205 -182 219
-296 10 -86 -10 -129 -98 -213 -70 -67 -79 -80 -79 -112 0 -28 9 -47 43 -84
63 -72 71 -84 59 -84 -15 0 -393 433 -413 473 -9 18 -22 56 -29 85 -45 191
110 311 298 231z m2208 -60 c23 -21 23 -22 5 -58 -55 -106 -75 -239 -47 -306
18 -43 5 -45 -34 -7 -36 36 -55 122 -46 213 6 67 27 141 47 166 17 19 50 16
75 -8z m156 -19 c28 -38 45 -188 29 -260 -12 -57 -43 -120 -60 -120 -5 0 0 17
10 37 10 21 19 45 19 55 0 32 -27 19 -43 -19 l-15 -38 5 59 c8 82 -17 72 -34
-14 -17 -82 -23 -87 -23 -17 0 42 -4 57 -14 57 -18 0 -28 -39 -20 -82 6 -32 6
-32 -12 -16 -29 28 -31 122 -4 209 23 77 39 108 79 152 30 33 57 32 83 -3z
m-891 -28 c25 -79 91 -195 224 -392 118 -176 134 -205 117 -208 -11 -2 -47 10
-79 26 -32 16 -102 48 -155 72 -86 37 -120 60 -88 60 6 0 10 9 10 20 0 23 -29
27 -48 8 -9 -9 -15 -9 -24 0 -7 7 -20 12 -30 12 -14 0 -18 -7 -16 -32 3 -31 2
-32 -127 -91 -169 -77 -183 -82 -191 -75 -3 4 52 94 123 200 137 204 203 317
223 383 23 75 41 80 61 17z m1034 8 c15 -16 17 -33 13 -107 -8 -135 -61 -249
-124 -267 -21 -6 -20 -5 5 46 23 47 26 65 26 158 0 58 -3 117 -8 132 -6 23 -3
29 20 42 37 20 47 20 68 -4z m673 -40 c1 -9 -48 -65 -113 -129 -97 -96 -117
-112 -130 -101 -8 7 -15 17 -15 24 0 6 48 59 108 119 75 75 113 107 127 105
11 -2 21 -10 23 -18z m-3566 -154 c25 -7 61 -24 81 -38 40 -27 417 -454 417
-472 0 -6 -27 17 -59 52 -52 56 -62 62 -98 62 -32 0 -49 -8 -98 -51 -83 -70
-111 -83 -175 -83 -65 1 -135 29 -198 81 -63 52 -99 106 -124 187 -18 61 -20
77 -10 123 14 68 41 105 94 132 50 24 106 27 170 7z m3196 -199 l52 -53 -88
-86 -87 -86 -103 5 -103 6 133 133 c73 73 135 133 138 134 3 0 29 -24 58 -53z
m-1163 -199 c38 -15 30 -16 -205 -16 -236 0 -244 1 -205 16 22 9 78 35 123 57
l84 40 81 -40 c45 -23 100 -48 122 -57z m1759 -9 c9 -48 7 -137 -4 -144 -5 -3
-37 -8 -70 -10 -33 -2 -69 -6 -79 -10 -14 -4 -20 1 -25 21 -6 21 -2 30 16 42
13 9 50 42 83 74 33 32 63 58 66 58 4 0 9 -14 13 -31z m-622 -76 c84 -24 193
-75 267 -125 102 -70 213 -205 271 -331 93 -200 95 -470 5 -673 -50 -113 -155
-246 -249 -315 l-38 -28 -44 54 -44 54 0 518 c0 486 -1 520 -19 553 -35 65
-65 75 -241 75 -176 0 -206 -10 -242 -75 -23 -44 -22 -145 2 -145 11 0 17 17
21 64 5 54 11 69 33 88 26 22 35 23 181 23 148 0 155 -1 182 -24 l28 -24 5
-471 5 -471 -217 0 -218 0 -2 373 c-3 323 -5 372 -18 372 -13 0 -15 -56 -18
-430 l-2 -429 -24 -26 c-39 -42 -93 -127 -112 -175 l-17 -46 -966 4 c-1084 3
-1003 -2 -1170 80 -149 73 -262 177 -353 329 -80 130 -114 274 -105 442 7 139
24 204 87 332 118 240 365 416 630 447 19 2 546 4 1170 3 l1135 -1 77 -22z
m568 -143 c0 -5 15 -10 33 -10 32 0 134 -24 144 -34 5 -5 -105 -156 -113 -156
-3 0 -2 5 1 10 7 11 3 12 -69 14 -27 0 -51 6 -53 11 -4 13 80 59 140 75 44 12
60 31 37 45 -13 8 -67 -10 -148 -48 -56 -27 -65 -28 -78 -15 -14 13 -12 17 10
32 27 17 35 46 13 46 -7 0 -23 -7 -35 -16 -12 -8 -27 -12 -32 -9 -22 14 -7 23
52 34 35 6 64 15 66 21 5 13 32 13 32 0z m310 -146 c0 -8 -4 -12 -10 -9 -6 3
-7 -1 -4 -9 6 -15 -43 -113 -73 -148 -13 -15 -19 -15 -66 -1 -29 8 -54 17 -56
18 -3 3 49 73 77 103 6 7 17 22 22 32 6 12 24 20 48 23 20 2 43 4 50 5 6 1 12
-5 12 -14z m-949 -1014 l199 0 0 -25 0 -25 -205 -1 c-113 -1 -211 -2 -217 -3
-15 -1 -22 28 -14 51 4 9 13 13 22 9 9 -3 105 -6 215 -6z m-101 -190 l0 -90
-135 0 c-85 0 -135 4 -135 10 0 13 44 83 82 133 l30 37 79 0 79 0 0 -90z m352
43 c40 -54 78 -114 78 -125 0 -5 -61 -8 -135 -8 l-135 0 0 90 0 90 78 0 78 0
36 -47z m2 -204 c10 -51 6 -177 -8 -289 -13 -99 -13 -105 5 -129 18 -23 18
-25 3 -43 -10 -10 -25 -18 -36 -18 -10 0 -18 -6 -18 -13 0 -7 -7 -22 -15 -35
-13 -18 -19 -20 -35 -10 -29 18 -72 -25 -68 -67 2 -19 8 -29 16 -27 8 1 11 -2
8 -7 -4 -5 -2 -12 4 -16 6 -4 0 -19 -15 -39 -14 -18 -22 -36 -18 -39 3 -4 -32
-7 -78 -8 -46 0 -139 -2 -206 -3 -104 -2 -123 0 -128 13 -6 16 -45 625 -45
714 l0 47 314 0 314 0 6 -31z"/>
<path d="M1200 3657 c-52 -34 -75 -82 -75 -152 0 -154 151 -313 305 -322 188
-12 236 222 80 391 -89 96 -234 135 -310 83z m197 -29 c49 -23 123 -98 152
-155 47 -92 34 -198 -28 -240 -105 -71 -292 27 -350 183 -68 180 52 293 226
212z"/>
<path d="M882 3373 c-38 -8 -89 -65 -102 -113 -31 -116 48 -271 178 -347 52
-31 155 -42 202 -23 132 55 125 257 -15 395 -74 72 -177 107 -263 88z m156
-45 c26 -12 69 -44 95 -70 146 -145 118 -354 -46 -353 -132 2 -269 137 -284
280 -14 135 102 205 235 143z"/>
<path d="M3425 2680 c-37 -8 -75 -28 -75 -39 0 -17 12 -19 38 -5 l27 14 5
-223 c3 -122 7 -223 8 -224 1 -1 9 -9 18 -17 21 -22 82 -20 122 4 42 26 41 38
-5 36 l-38 -1 -5 219 -5 220 -30 11 c-16 7 -43 9 -60 5z"/>
<path d="M2140 2629 c0 -6 9 -13 20 -16 19 -5 20 -14 20 -203 0 -189 -1 -198
-20 -203 -11 -3 -20 -10 -20 -16 0 -7 25 -11 65 -11 51 0 65 3 65 15 0 8 -9
15 -20 15 -19 0 -20 6 -19 178 l0 177 97 -192 97 -193 57 0 58 0 0 214 c0 209
0 214 21 219 40 11 8 27 -52 27 -46 0 -59 -3 -59 -15 0 -8 9 -15 20 -15 19 0
20 -7 20 -162 0 -96 -4 -158 -9 -152 -5 5 -48 84 -96 177 l-87 167 -79 0 c-50
0 -79 -4 -79 -11z"/>
<path d="M2736 2497 c-53 -30 -81 -85 -80 -157 1 -60 18 -102 58 -139 20 -19
40 -26 85 -29 53 -4 62 -2 85 21 l24 25 21 -24 c26 -30 83 -32 129 -4 42 26
41 38 -5 36 l-38 -1 -3 143 -3 142 -48 0 c-27 0 -51 -5 -53 -11 -2 -6 -14 -5
-33 5 -42 22 -93 20 -139 -7z m147 -49 c46 -61 26 -220 -28 -234 -39 -10 -59
-1 -77 36 -33 64 -17 193 26 223 21 14 59 2 79 -25z"/>
<path d="M3151 2509 c-36 -14 -51 -29 -44 -45 4 -12 8 -12 26 1 12 8 25 15 29
15 5 0 8 -58 8 -129 0 -115 2 -131 21 -155 25 -32 77 -35 128 -8 39 21 38 38
-3 34 -16 -2 -32 2 -37 10 -5 7 -9 70 -9 140 0 116 -2 128 -19 138 -24 12 -68
12 -100 -1z"/>
<path d="M2480 2072 c-19 -9 -33 -21 -30 -27 5 -10 11 -10 46 0 21 7 22 6 23
-207 2 -234 6 -251 61 -263 35 -8 120 28 120 51 0 17 -5 17 -30 4 -10 -5 -26
-7 -34 -4 -14 5 -16 35 -16 219 0 193 -2 213 -18 228 -24 22 -78 22 -122 -1z"/>
<path d="M1770 1935 c-8 -9 -10 -28 -6 -50 6 -31 1 -47 -34 -107 -53 -92 -38
-108 25 -27 52 67 62 67 84 0 27 -82 -1 -136 -67 -129 -21 3 -43 7 -51 9 -7 2
-15 -1 -18 -8 -7 -20 58 -47 114 -47 62 0 99 22 126 77 25 51 10 105 -47 162
-36 36 -42 47 -38 74 2 17 -1 38 -8 46 -16 19 -64 19 -80 0z"/>
<path d="M2126 1920 c-66 -20 -108 -86 -108 -170 0 -79 30 -135 85 -161 57
-25 87 -24 132 7 37 25 38 25 51 5 22 -30 66 -35 117 -13 25 11 47 24 51 30
10 17 -11 24 -33 10 -15 -9 -23 -9 -35 1 -13 11 -16 38 -16 152 l0 139 -50 0
c-36 0 -50 -4 -50 -14 0 -11 -8 -10 -37 5 -40 20 -62 22 -107 9z m96 -41 c67
-36 61 -235 -8 -260 -12 -4 -31 -2 -45 5 -66 32 -63 229 3 256 30 12 26 12 50
-1z"/>
<path d="M2847 1916 c-50 -18 -76 -42 -98 -91 -75 -163 105 -319 258 -224 81
51 100 189 36 265 -45 53 -129 75 -196 50z m90 -31 c59 -41 57 -233 -2 -271
-23 -15 -27 -15 -50 0 -35 23 -45 54 -45 137 0 73 16 120 47 138 24 14 25 14
50 -4z"/>
<path d="M3367 1920 c-16 -5 -35 -14 -42 -20 -11 -9 -25 -8 -59 5 -52 20 -116
14 -116 -11 0 -11 8 -14 28 -12 l27 3 3 -152 3 -153 49 0 50 0 0 133 c0 117 2
136 18 150 22 20 63 22 80 5 8 -8 12 -51 12 -128 0 -129 9 -154 60 -165 36 -8
120 27 120 49 0 19 -4 20 -29 4 -15 -9 -23 -9 -35 1 -13 11 -16 35 -16 117 0
124 -9 150 -55 169 -38 17 -56 17 -98 5z"/>
<path d="M2733 4053 c-8 -21 -8 -90 2 -219 7 -90 5 -110 -15 -175 -28 -94 -56
-148 -143 -282 -63 -98 -77 -131 -48 -112 39 23 177 266 212 370 24 72 25 83
17 343 -3 88 -11 112 -25 75z"/>
<path d="M630 2691 c-54 -28 -82 -84 -76 -151 5 -49 2 -58 -20 -81 -67 -70
-38 -197 52 -235 99 -41 284 25 344 122 43 69 14 187 -70 278 -74 80 -159 105
-230 67z m130 -111 c63 -41 128 -147 117 -190 -4 -17 -2 -18 15 -9 17 9 18 8
10 -8 -48 -88 -227 -152 -309 -110 -27 15 -63 68 -63 96 0 14 32 81 39 81 3 0
16 8 29 18 21 17 22 20 9 52 -19 45 -9 119 13 105 5 -3 10 -2 10 4 0 14 90
-12 130 -39z"/>
<path d="M873 1770 c-37 -15 -56 -55 -50 -104 5 -32 2 -47 -8 -56 -21 -18 -18
-73 5 -103 43 -55 137 -42 207 28 49 48 54 75 24 133 -24 47 -56 77 -103 97
-42 17 -45 17 -75 5z m119 -56 c31 -29 58 -80 58 -108 0 -9 -15 -32 -32 -52
-56 -64 -132 -82 -175 -42 -29 27 -30 71 -2 99 15 15 18 24 10 32 -17 17 -13
68 6 90 26 28 95 18 135 -19z"/>
</g>
</svg>
